<svg version="1.1" id="Layer_1" xmlns="http://www.w3.org/2000/svg" xmlns:xlink="http://www.w3.org/1999/xlink" x="0px" y="0px" fill="#fff"
	 viewBox="0 0 512 512" style="enable-background:new 0 0 512 512;" xml:space="preserve">
<g>
	<g>
		<g>
			<path d="M73.754,384.145c-15.655,0-28.392,12.741-28.392,28.402c0,15.661,12.736,28.402,28.392,28.402
				c15.656,0,28.393-12.741,28.393-28.402C102.147,396.886,89.409,384.145,73.754,384.145z M73.754,425.949
				c-7.384,0-13.392-6.013-13.392-13.402s6.008-13.402,13.392-13.402c7.385,0,13.393,6.013,13.393,13.402
				S81.139,425.949,73.754,425.949z"/>
			<path d="M389.648,440.95c15.655,0,28.392-12.741,28.392-28.402c0-15.661-12.736-28.402-28.392-28.402
				c-15.656,0-28.393,12.741-28.393,28.402C361.255,428.208,373.992,440.95,389.648,440.95z M389.648,399.145
				c7.384,0,13.392,6.013,13.392,13.402s-6.008,13.402-13.392,13.402c-7.385,0-13.393-6.013-13.393-13.402
				S382.263,399.145,389.648,399.145z"/>
			<path d="M106.616,395.087c-1.413,1.919-1.83,4.396-1.123,6.673c1.079,3.478,1.627,7.106,1.627,10.787
				c0,3.68-0.548,7.31-1.628,10.788c-0.706,2.276-0.289,4.753,1.125,6.672c1.413,1.919,3.654,3.052,6.038,3.052h238.09
				c2.384,0,4.625-1.133,6.038-3.052c1.414-1.919,1.831-4.396,1.125-6.672c-1.08-3.479-1.628-7.108-1.628-10.788
				c0-3.681,0.548-7.31,1.628-10.787c0.706-2.276,0.289-4.754-1.124-6.673c-1.414-1.919-3.655-3.052-6.039-3.052h-238.09
				C110.273,392.035,108.03,393.168,106.616,395.087z M121.828,407.035h219.747c-0.195,1.825-0.294,3.664-0.294,5.512
				s0.099,3.687,0.294,5.512H121.827c0.195-1.825,0.294-3.664,0.294-5.512S122.023,408.86,121.828,407.035z"/>
			<path d="M200.532,282.232c-4.143,0-7.5,3.357-7.5,7.5s3.357,7.5,7.5,7.5h17.454c4.143,0,7.5-3.357,7.5-7.5s-3.357-7.5-7.5-7.5
				H200.532z"/>
			<path d="M42.685,309.01c2.776,0,5.445-1.549,6.745-4.211l17.707-36.26c1.817-3.722,0.273-8.213-3.448-10.03
				c-3.723-1.819-8.214-0.273-10.03,3.448l-17.707,36.26c-1.817,3.722-0.273,8.213,3.448,10.03
				C40.459,308.765,41.58,309.01,42.685,309.01z"/>
			<path d="M78.156,309.01c2.776,0,5.445-1.548,6.745-4.211l17.708-36.26c1.817-3.722,0.274-8.213-3.448-10.03
				c-3.724-1.819-8.214-0.274-10.03,3.448l-17.708,36.26c-1.817,3.722-0.274,8.213,3.448,10.03
				C75.931,308.765,77.052,309.01,78.156,309.01z"/>
			<path d="M113.63,309.01c2.776,0,5.445-1.548,6.745-4.211l17.708-36.26c1.817-3.722,0.274-8.213-3.448-10.03
				c-3.723-1.819-8.213-0.274-10.03,3.448l-17.708,36.26c-1.817,3.722-0.274,8.213,3.448,10.03
				C111.404,308.765,112.525,309.01,113.63,309.01z"/>
			<path d="M509.26,266.282l-18.479-42.803c-0.095-0.22-0.201-0.434-0.316-0.643l-31.619-75.539
				c-1.599-3.821-5.996-5.622-9.813-4.022c-3.821,1.599-5.622,5.993-4.022,9.813l29.065,69.437l-9.933,4.293L397.721,99.293
				l-0.001-0.001l-1.469-2.822l-8.789-16.876c-0.008-0.016-0.014-0.033-0.022-0.049c-0.209-0.405-0.392-0.817-0.554-1.234
				c-0.053-0.138-0.093-0.279-0.141-0.418c-0.106-0.305-0.207-0.611-0.288-0.922c-0.038-0.147-0.067-0.295-0.1-0.443
				c-0.071-0.32-0.133-0.641-0.178-0.966c-0.018-0.128-0.032-0.256-0.045-0.385c-0.038-0.36-0.061-0.723-0.067-1.088
				c-0.025-1.498,0.212-3.006,0.746-4.47c1.207-3.305,3.663-5.862,6.915-7.201c6.267-2.579,13.498,0.412,16.117,6.667l23.474,56.079
				c1.6,3.822,5.998,5.623,9.813,4.022c3.821-1.599,5.622-5.993,4.022-9.813l-23.474-56.08
				c-5.792-13.838-21.79-20.454-35.661-14.746c-7.092,2.917-12.667,8.723-15.298,15.927c-0.504,1.379-0.89,2.79-1.163,4.215
				l-114.051,46.925c-1.944-0.275-3.927-0.427-5.946-0.427h-30.359c-10.721,0-19.443,8.725-19.443,19.449v32.216h-20.137
				c-9.563,0-17.344,7.782-17.344,17.349v42.598c0,1.295-1.052,2.349-2.344,2.349H17.344C7.78,229.149,0,236.931,0,246.497v18.196
				c0,4.143,3.357,7.5,7.5,7.5s7.5-3.357,7.5-7.5v-18.196c0-1.295,1.052-2.349,2.344-2.349h144.591
				c9.563,0,17.344-7.782,17.344-17.349v-42.598c0-1.295,1.052-2.349,2.344-2.349h27.637h77.007h5.175
				c1.096,0,2.075,0.612,2.557,1.599l22.802,46.722c0.651,1.337,0.996,2.828,0.996,4.314v90.862c0,1.572-1.276,2.852-2.846,2.852
				h-17.047h-141.01H17.344c-1.292,0-2.344-1.054-2.344-2.349v-30.94c0-4.143-3.357-7.5-7.5-7.5s-7.5,3.357-7.5,7.5v30.94
				c0,9.566,7.78,17.349,17.344,17.349h132.051v16.386H66.702c-29.195,0-52.948,23.752-52.948,52.97
				c0,29.195,23.752,52.948,52.948,52.948h329.998c29.195,0,52.948-23.752,52.948-52.971c0-29.194-23.752-52.947-52.948-52.947
				h-91.296v-16.386h9.547c9.84,0,17.846-8.008,17.846-17.852v-90.862c0-3.752-0.87-7.518-2.516-10.892l-22.802-46.723
				c-2.627-5.384-7.855-9.076-13.712-9.86v-3.837l94.149-50.237l62.418,119.846l-70.406,30.427
				c-4.766,2.061-7.753,6.565-7.796,11.758c-0.043,5.114,2.94,9.779,7.601,11.886l67.787,30.636
				c4.355,1.969,8.987,2.967,13.767,2.967c4.587,0,9.048-0.923,13.26-2.742l17.278-7.467
				C508.748,302.937,516.569,283.212,509.26,266.282z M164.395,343.202h126.009v16.386h-0.001H164.395V343.202z M396.699,374.589
				c20.924,0,37.949,17.022,37.949,37.97c0,20.924-17.023,37.948-37.948,37.948H66.702c-20.924,0-37.948-17.023-37.948-37.971
				c0-20.924,17.023-37.947,37.948-37.947h90.192h141.009H396.699z M278.763,157.41v1.269v8.176H216.76v-0.001v-32.216
				c0-2.453,1.993-4.449,4.443-4.449h30.359c1.851,0,3.659,0.188,5.407,0.542c0.68,0.137,1.346,0.307,2.005,0.494
				c0.154,0.044,0.308,0.085,0.461,0.131c0.602,0.182,1.192,0.387,1.774,0.608c0.198,0.075,0.395,0.153,0.59,0.233
				c0.549,0.224,1.09,0.461,1.62,0.719c0.204,0.099,0.403,0.206,0.604,0.31c0.436,0.225,0.864,0.461,1.285,0.709
				c0.243,0.143,0.483,0.29,0.721,0.44c0.409,0.258,0.81,0.527,1.203,0.806c0.179,0.127,0.36,0.25,0.535,0.381
				c0.471,0.351,0.928,0.72,1.375,1.1c0.153,0.13,0.305,0.261,0.454,0.394c0.461,0.41,0.91,0.833,1.341,1.273
				c0.098,0.1,0.193,0.203,0.29,0.305c0.468,0.492,0.925,0.995,1.355,1.521c0.005,0.007,0.01,0.014,0.016,0.02
				c0.474,0.58,0.925,1.18,1.35,1.798c0.008,0.011,0.016,0.023,0.024,0.034c0.424,0.617,0.822,1.253,1.195,1.905
				c0.012,0.021,0.024,0.041,0.035,0.061c1.494,2.625,2.557,5.513,3.114,8.558c0.014,0.078,0.028,0.156,0.042,0.235
				c0.122,0.704,0.217,1.416,0.284,2.135c0.009,0.096,0.014,0.192,0.022,0.289c0.06,0.733,0.098,1.472,0.098,2.218V157.41z
				 M292.439,146.883c-1.475-5.73-4.134-10.985-7.686-15.507c-0.089-0.113-0.176-0.226-0.266-0.339
				c-0.267-0.333-0.539-0.66-0.815-0.984c-0.148-0.174-0.297-0.346-0.448-0.517c-0.243-0.275-0.487-0.549-0.736-0.818
				c-0.212-0.229-0.429-0.454-0.646-0.678c-0.206-0.213-0.411-0.427-0.622-0.636c-0.332-0.33-0.673-0.651-1.016-0.969
				c-0.109-0.101-0.214-0.205-0.324-0.305c-0.901-0.819-1.837-1.602-2.809-2.343l96.042-39.516c0.026,0.064,0.061,0.125,0.088,0.189
				c0.292,0.698,0.605,1.389,0.957,2.064l6.829,13.112L292.439,146.883z M485.874,296.482l-17.278,7.467
				c-4.74,2.047-10.19,2.003-14.896-0.123l-63.512-28.704l72.907-31.507c0.207-0.069,0.413-0.142,0.617-0.23l16.275-7.06
				l15.502,35.904C499.521,281.566,495.207,292.447,485.874,296.482z"/>
			<path d="M295.424,272.235v-0.001c5.32,0,9.648-4.329,9.648-9.649v-25.906c0-1.45-0.335-2.909-0.978-4.232l-17.335-35.521
				c-1.606-3.291-5.01-5.417-8.671-5.417h-76.61c-5.32,0-9.648,4.329-9.648,9.649v35.286c0,2.558,1.043,5.058,2.867,6.864
				l26.456,26.143c1.817,1.795,4.226,2.784,6.78,2.784H295.424z M206.83,234.209v-27.701h67.915l15.327,31.406v19.32h-59.94
				L206.83,234.209z"/>
		</g>
	</g>
</g>
<g>
</g>
<g>
</g>
<g>
</g>
<g>
</g>
<g>
</g>
<g>
</g>
<g>
</g>
<g>
</g>
<g>
</g>
<g>
</g>
<g>
</g>
<g>
</g>
<g>
</g>
<g>
</g>
<g>
</g>
</svg>
