<svg width="159" height="74" viewBox="0 0 159 74" fill="none" xmlns="http://www.w3.org/2000/svg">
<path d="M48 38.5391H35.0625V46.6719H50.3438V53H26.8359V18.875H50.3906V25.2266H35.0625V32.4219H48V38.5391ZM61.6641 53H53.7422V17H61.6641V53ZM74.8828 53H66.9609V27.6406H74.8828V53ZM66.4922 21.1016C66.4922 19.9766 66.8984 19.0547 67.7109 18.3359C68.5234 17.6172 69.5781 17.2578 70.875 17.2578C72.1719 17.2578 73.2266 17.6172 74.0391 18.3359C74.8516 19.0547 75.2578 19.9766 75.2578 21.1016C75.2578 22.2266 74.8516 23.1484 74.0391 23.8672C73.2266 24.5859 72.1719 24.9453 70.875 24.9453C69.5781 24.9453 68.5234 24.5859 67.7109 23.8672C66.8984 23.1484 66.4922 22.2266 66.4922 21.1016ZM88.9688 21.3359V27.6406H93.1406V33.125H88.9688V44.7266C88.9688 45.6797 89.1406 46.3438 89.4844 46.7188C89.8281 47.0938 90.5078 47.2812 91.5234 47.2812C92.3047 47.2812 92.9609 47.2344 93.4922 47.1406V52.7891C92.0703 53.2422 90.5859 53.4688 89.0391 53.4688C86.3203 53.4688 84.3125 52.8281 83.0156 51.5469C81.7188 50.2656 81.0703 48.3203 81.0703 45.7109V33.125H77.8359V27.6406H81.0703V21.3359H88.9688ZM108.539 53.4688C104.648 53.4688 101.5 52.3125 99.0938 50C96.6875 47.6719 95.4844 44.6484 95.4844 40.9297V40.2734C95.4844 37.6797 95.9609 35.3906 96.9141 33.4062C97.8828 31.4219 99.2891 29.8906 101.133 28.8125C102.977 27.7188 105.164 27.1719 107.695 27.1719C111.258 27.1719 114.07 28.2812 116.133 30.5C118.195 32.7031 119.227 35.7812 119.227 39.7344V42.8047H103.523C103.805 44.2266 104.422 45.3438 105.375 46.1562C106.328 46.9688 107.562 47.375 109.078 47.375C111.578 47.375 113.531 46.5 114.938 44.75L118.547 49.0156C117.562 50.375 116.164 51.4609 114.352 52.2734C112.555 53.0703 110.617 53.4688 108.539 53.4688ZM107.648 33.2656C105.336 33.2656 103.961 34.7969 103.523 37.8594H111.492V37.25C111.523 35.9844 111.203 35.0078 110.531 34.3203C109.859 33.6172 108.898 33.2656 107.648 33.2656ZM127.312 45.3359C128.562 45.3359 129.602 45.7109 130.43 46.4609C131.258 47.1953 131.672 48.1406 131.672 49.2969C131.672 50.4531 131.258 51.4062 130.43 52.1562C129.602 52.8906 128.562 53.2578 127.312 53.2578C126.047 53.2578 125 52.8828 124.172 52.1328C123.359 51.3828 122.953 50.4375 122.953 49.2969C122.953 48.1562 123.359 47.2109 124.172 46.4609C125 45.7109 126.047 45.3359 127.312 45.3359Z" fill="white"/>
</svg>
